<svg width="24" height="25" viewBox="0 0 24 25" fill="none" xmlns="http://www.w3.org/2000/svg">
<path d="M17.5629 1.48358L14.7857 1.479C11.6655 1.479 9.64911 3.60409 9.64911 6.89323V9.38956H6.8567C6.6154 9.38956 6.42 9.59051 6.42 9.83838V13.4553C6.42 13.7031 6.61562 13.9039 6.8567 13.9039H9.64911V23.0304C9.64911 23.2783 9.84451 23.479 10.0858 23.479H13.7291C13.9704 23.479 14.1658 23.2781 14.1658 23.0304V13.9039H17.4308C17.6721 13.9039 17.8675 13.7031 17.8675 13.4553L17.8688 9.83838C17.8688 9.71936 17.8227 9.60538 17.7409 9.52116C17.6592 9.43693 17.5478 9.38956 17.4319 9.38956H14.1658V7.27339C14.1658 6.25628 14.4018 5.73994 15.6916 5.73994L17.5625 5.73925C17.8035 5.73925 17.9989 5.5383 17.9989 5.29066V1.93217C17.9989 1.68476 17.8038 1.48404 17.5629 1.48358Z" fill="white"/>
</svg>
